<svg width="342" height="216" viewBox="0 0 342 216" fill="none" xmlns="http://www.w3.org/2000/svg">
<circle cx="122" cy="87" r="35" stroke="black" stroke-width="10"/>
<circle cx="219" cy="87" r="35" stroke="black" stroke-width="10"/>
<path d="M156 80C156 71.7157 162.492 65 170.5 65C178.508 65 185 71.7157 185 80" stroke="black" stroke-width="7"/>
<mask id="mask0" mask-type="alpha" maskUnits="userSpaceOnUse" x="0" y="2" width="336" height="214">
<path d="M304.464 127.72C298.8 127.72 293.184 126.76 287.616 124.84C282.048 122.92 277.536 120.04 274.08 116.2C273.024 115.048 272.592 113.752 272.784 112.312C272.976 110.872 273.696 109.624 274.944 108.568C276.288 107.608 277.68 107.224 279.12 107.416C280.56 107.608 281.76 108.232 282.72 109.288C285.024 111.976 288.048 114.04 291.792 115.48C295.632 116.92 299.856 117.64 304.464 117.64C311.568 117.64 316.704 116.44 319.872 114.04C323.04 111.544 324.672 108.568 324.768 105.112C324.768 101.656 323.136 98.824 319.872 96.616C316.608 94.312 311.232 92.536 303.744 91.288C294.048 89.752 286.944 87.064 282.432 83.224C277.92 79.384 275.664 74.824 275.664 69.544C275.664 64.648 276.96 60.568 279.552 57.304C282.144 54.04 285.6 51.592 289.92 49.96C294.24 48.328 298.992 47.512 304.176 47.512C310.608 47.512 316.128 48.616 320.736 50.824C325.44 53.032 329.232 56.008 332.112 59.752C333.072 61 333.456 62.296 333.264 63.64C333.072 64.984 332.304 66.088 330.96 66.952C329.808 67.624 328.464 67.864 326.928 67.672C325.488 67.384 324.24 66.664 323.184 65.512C320.784 62.728 318 60.712 314.832 59.464C311.664 58.12 308.016 57.448 303.888 57.448C298.608 57.448 294.384 58.552 291.216 60.76C288.048 62.872 286.464 65.56 286.464 68.824C286.464 71.032 287.04 72.952 288.192 74.584C289.44 76.216 291.504 77.656 294.384 78.904C297.36 80.152 301.488 81.208 306.768 82.072C313.968 83.224 319.632 84.952 323.76 87.256C327.984 89.464 330.96 92.104 332.688 95.176C334.512 98.152 335.424 101.416 335.424 104.968C335.424 109.48 334.08 113.464 331.392 116.92C328.8 120.28 325.152 122.92 320.448 124.84C315.84 126.76 310.512 127.72 304.464 127.72Z" fill="black"/>
<rect x="56" y="2" width="10" height="59" rx="5" fill="black"/>
<rect x="56" y="53" width="10" height="47" rx="5" fill="black"/>
<rect y="89" width="10" height="11" rx="5" fill="black"/>
<path d="M61 95C61 110.464 48.464 123 33 123C17.536 123 5 110.464 5 95" stroke="black" stroke-width="10"/>
<rect x="179" y="2" width="10" height="50" rx="5" fill="black"/>
<path d="M28.839 199.345C25.297 199.345 22.123 198.517 19.317 196.861C16.511 195.159 14.28 192.859 12.624 189.961C11.014 187.063 10.209 183.797 10.209 180.163C10.209 176.483 11.037 173.194 12.693 170.296C14.395 167.398 16.695 165.121 19.593 163.465C22.491 161.763 25.757 160.912 29.391 160.912C33.025 160.912 36.268 161.763 39.12 163.465C42.018 165.121 44.295 167.398 45.951 170.296C47.653 173.194 48.527 176.483 48.573 180.163L46.434 181.819C46.434 185.131 45.652 188.121 44.088 190.789C42.57 193.411 40.477 195.504 37.809 197.068C35.187 198.586 32.197 199.345 28.839 199.345ZM29.391 194.515C32.059 194.515 34.428 193.894 36.498 192.652C38.614 191.41 40.27 189.708 41.466 187.546C42.708 185.338 43.329 182.877 43.329 180.163C43.329 177.403 42.708 174.942 41.466 172.78C40.27 170.618 38.614 168.916 36.498 167.674C34.428 166.386 32.059 165.742 29.391 165.742C26.769 165.742 24.4 166.386 22.284 167.674C20.168 168.916 18.489 170.618 17.247 172.78C16.005 174.942 15.384 177.403 15.384 180.163C15.384 182.877 16.005 185.338 17.247 187.546C18.489 189.708 20.168 191.41 22.284 192.652C24.4 193.894 26.769 194.515 29.391 194.515ZM45.882 199C45.1 199 44.456 198.77 43.95 198.31C43.444 197.804 43.191 197.16 43.191 196.378V184.579L44.502 179.128L48.573 180.163V196.378C48.573 197.16 48.32 197.804 47.814 198.31C47.308 198.77 46.664 199 45.882 199ZM75.7423 199.345C72.1083 199.345 68.8653 198.517 66.0133 196.861C63.2073 195.159 60.9763 192.859 59.3203 189.961C57.7103 187.063 56.9053 183.797 56.9053 180.163C56.9053 176.483 57.6873 173.194 59.2513 170.296C60.8153 167.398 62.9543 165.121 65.6683 163.465C68.3823 161.763 71.5103 160.912 75.0523 160.912C77.8583 160.912 80.4343 161.464 82.7803 162.568C85.1723 163.672 87.2653 165.328 89.0593 167.536C89.5653 168.088 89.7493 168.686 89.6113 169.33C89.4733 169.928 89.0823 170.457 88.4383 170.917C87.9323 171.285 87.3573 171.423 86.7133 171.331C86.1153 171.193 85.5863 170.848 85.1263 170.296C82.4583 167.26 79.1003 165.742 75.0523 165.742C72.4763 165.742 70.1993 166.363 68.2213 167.605C66.2893 168.847 64.7713 170.549 63.6673 172.711C62.6093 174.873 62.0803 177.357 62.0803 180.163C62.0803 182.923 62.6553 185.384 63.8053 187.546C64.9553 189.708 66.5653 191.41 68.6353 192.652C70.7053 193.894 73.0743 194.515 75.7423 194.515C77.5363 194.515 79.1693 194.285 80.6413 193.825C82.1593 193.319 83.4933 192.56 84.6433 191.548C85.1953 191.088 85.7703 190.835 86.3683 190.789C86.9663 190.743 87.5183 190.927 88.0243 191.341C88.5763 191.847 88.8753 192.422 88.9213 193.066C89.0133 193.71 88.8063 194.262 88.3003 194.722C84.9423 197.804 80.7563 199.345 75.7423 199.345ZM116.639 199.345C113.097 199.345 109.923 198.517 107.117 196.861C104.311 195.159 102.08 192.859 100.424 189.961C98.8138 187.063 98.0088 183.797 98.0088 180.163C98.0088 176.483 98.8368 173.194 100.493 170.296C102.195 167.398 104.495 165.121 107.393 163.465C110.291 161.763 113.557 160.912 117.191 160.912C120.825 160.912 124.068 161.763 126.92 163.465C129.818 165.121 132.095 167.398 133.751 170.296C135.453 173.194 136.327 176.483 136.373 180.163L134.234 181.819C134.234 185.131 133.452 188.121 131.888 190.789C130.37 193.411 128.277 195.504 125.609 197.068C122.987 198.586 119.997 199.345 116.639 199.345ZM117.191 194.515C119.859 194.515 122.228 193.894 124.298 192.652C126.414 191.41 128.07 189.708 129.266 187.546C130.508 185.338 131.129 182.877 131.129 180.163C131.129 177.403 130.508 174.942 129.266 172.78C128.07 170.618 126.414 168.916 124.298 167.674C122.228 166.386 119.859 165.742 117.191 165.742C114.569 165.742 112.2 166.386 110.084 167.674C107.968 168.916 106.289 170.618 105.047 172.78C103.805 174.942 103.184 177.403 103.184 180.163C103.184 182.877 103.805 185.338 105.047 187.546C106.289 189.708 107.968 191.41 110.084 192.652C112.2 193.894 114.569 194.515 117.191 194.515ZM133.682 199C132.9 199 132.256 198.77 131.75 198.31C131.244 197.804 130.991 197.16 130.991 196.378V184.579L132.302 179.128L136.373 180.163V196.378C136.373 197.16 136.12 197.804 135.614 198.31C135.108 198.77 134.464 199 133.682 199ZM163.887 199.345C160.253 199.345 156.987 198.517 154.089 196.861C151.191 195.159 148.891 192.859 147.189 189.961C145.533 187.063 144.705 183.774 144.705 180.094C144.705 176.46 145.51 173.194 147.12 170.296C148.776 167.398 151.007 165.121 153.813 163.465C156.619 161.763 159.793 160.912 163.335 160.912C166.417 160.912 169.2 161.579 171.684 162.913C174.168 164.201 176.169 165.926 177.687 168.088V147.802C177.687 146.974 177.94 146.33 178.446 145.87C178.952 145.364 179.596 145.111 180.378 145.111C181.16 145.111 181.804 145.364 182.31 145.87C182.816 146.33 183.069 146.974 183.069 147.802V180.37C182.977 183.958 182.08 187.201 180.378 190.099C178.722 192.951 176.445 195.205 173.547 196.861C170.695 198.517 167.475 199.345 163.887 199.345ZM163.887 194.515C166.555 194.515 168.924 193.894 170.994 192.652C173.11 191.364 174.766 189.639 175.962 187.477C177.204 185.315 177.825 182.854 177.825 180.094C177.825 177.38 177.204 174.942 175.962 172.78C174.766 170.572 173.11 168.847 170.994 167.605C168.924 166.363 166.555 165.742 163.887 165.742C161.265 165.742 158.896 166.363 156.78 167.605C154.664 168.847 152.985 170.572 151.743 172.78C150.501 174.942 149.88 177.38 149.88 180.094C149.88 182.854 150.501 185.315 151.743 187.477C152.985 189.639 154.664 191.364 156.78 192.652C158.896 193.894 161.265 194.515 163.887 194.515ZM212.603 199.345C208.877 199.345 205.565 198.54 202.667 196.93C199.815 195.274 197.561 192.997 195.905 190.099C194.295 187.201 193.49 183.889 193.49 180.163C193.49 176.391 194.249 173.079 195.767 170.227C197.331 167.329 199.47 165.052 202.184 163.396C204.898 161.74 208.026 160.912 211.568 160.912C215.064 160.912 218.1 161.717 220.676 163.327C223.298 164.891 225.322 167.076 226.748 169.882C228.174 172.688 228.887 175.885 228.887 179.473C228.887 180.209 228.657 180.807 228.197 181.267C227.737 181.681 227.139 181.888 226.403 181.888H197.078V177.472H226.955L223.988 179.611C224.034 176.943 223.551 174.551 222.539 172.435C221.527 170.319 220.078 168.663 218.192 167.467C216.352 166.271 214.144 165.673 211.568 165.673C208.946 165.673 206.646 166.294 204.668 167.536C202.69 168.778 201.149 170.503 200.045 172.711C198.987 174.873 198.458 177.357 198.458 180.163C198.458 182.969 199.056 185.453 200.252 187.615C201.494 189.777 203.173 191.479 205.289 192.721C207.405 193.963 209.843 194.584 212.603 194.584C214.259 194.584 215.915 194.308 217.571 193.756C219.273 193.158 220.63 192.422 221.642 191.548C222.148 191.134 222.723 190.927 223.367 190.927C224.011 190.881 224.563 191.042 225.023 191.41C225.621 191.962 225.92 192.56 225.92 193.204C225.966 193.848 225.713 194.4 225.161 194.86C223.643 196.148 221.711 197.229 219.365 198.103C217.019 198.931 214.765 199.345 212.603 199.345ZM288.866 199C288.084 199 287.44 198.77 286.934 198.31C286.428 197.804 286.175 197.16 286.175 196.378V176.506C286.175 173.24 285.324 170.664 283.622 168.778C281.92 166.846 279.735 165.88 277.067 165.88C274.215 165.88 271.869 166.846 270.029 168.778C268.235 170.664 267.361 173.194 267.407 176.368H262.646C262.692 173.286 263.359 170.572 264.647 168.226C265.935 165.88 267.706 164.063 269.96 162.775C272.214 161.487 274.767 160.843 277.619 160.843C280.333 160.843 282.725 161.487 284.795 162.775C286.911 164.063 288.544 165.88 289.694 168.226C290.89 170.572 291.488 173.332 291.488 176.506V196.378C291.488 197.16 291.235 197.804 290.729 198.31C290.269 198.77 289.648 199 288.866 199ZM240.566 199C239.738 199 239.071 198.77 238.565 198.31C238.105 197.804 237.875 197.16 237.875 196.378V163.948C237.875 163.166 238.105 162.522 238.565 162.016C239.071 161.51 239.738 161.257 240.566 161.257C241.348 161.257 241.969 161.51 242.429 162.016C242.935 162.522 243.188 163.166 243.188 163.948V196.378C243.188 197.16 242.935 197.804 242.429 198.31C241.969 198.77 241.348 199 240.566 199ZM264.785 199C264.003 199 263.359 198.77 262.853 198.31C262.347 197.804 262.094 197.16 262.094 196.378V176.506C262.094 173.24 261.243 170.664 259.541 168.778C257.839 166.846 255.654 165.88 252.986 165.88C250.134 165.88 247.788 166.823 245.948 168.709C244.108 170.549 243.188 172.964 243.188 175.954H239.393C239.485 173.01 240.129 170.411 241.325 168.157C242.567 165.857 244.246 164.063 246.362 162.775C248.478 161.487 250.87 160.843 253.538 160.843C256.252 160.843 258.644 161.487 260.714 162.775C262.83 164.063 264.463 165.88 265.613 168.226C266.809 170.572 267.407 173.332 267.407 176.506V196.378C267.407 197.16 267.154 197.804 266.648 198.31C266.188 198.77 265.567 199 264.785 199ZM309.722 215.422C309.354 215.422 308.94 215.33 308.48 215.146C306.916 214.456 306.479 213.352 307.169 211.834L329.456 162.706C330.146 161.234 331.25 160.82 332.768 161.464C334.332 162.108 334.769 163.189 334.079 164.707L311.723 213.835C311.263 214.893 310.596 215.422 309.722 215.422ZM317.381 197.827C316.691 198.149 316.047 198.218 315.449 198.034C314.851 197.804 314.368 197.344 314 196.654L298.613 164.776C298.291 164.086 298.245 163.442 298.475 162.844C298.705 162.246 299.165 161.786 299.855 161.464C300.545 161.142 301.189 161.096 301.787 161.326C302.385 161.51 302.845 161.947 303.167 162.637L318.278 194.515C318.646 195.205 318.761 195.849 318.623 196.447C318.485 197.045 318.071 197.505 317.381 197.827Z" fill="black"/>
</mask>
<g mask="url(#mask0)">
<rect x="-90" y="-57" width="554" height="291" fill="url(#paint0_linear)"/>
</g>
<defs>
<linearGradient id="paint0_linear" x1="-84.5" y1="-48.5" x2="464" y2="234" gradientUnits="userSpaceOnUse">
<stop stop-color="#DC01B6"/>
<stop offset="1" stop-color="#0E00D8"/>
</linearGradient>
</defs>
</svg>
